<svg viewBox="0 0 43 34" fill="currentColor" xmlns="http://www.w3.org/2000/svg">
<path d="M40.4789 0.504C36.3879 0.733084 28.2566 1.56692 23.2368 4.59878C22.8904 4.80797 22.6941 5.17996 22.6941 5.56889V32.3717C22.6941 33.2225 23.637 33.7602 24.432 33.3654C29.5966 30.8005 37.0657 30.1007 40.7589 29.9092C42.0198 29.8437 43 28.8463 43 27.6508V2.76537C43.0007 1.46085 41.8541 0.427393 40.4789 0.504ZM19.7632 4.59878C14.7442 1.56692 6.61286 0.73382 2.52181 0.504C1.14669 0.427393 0 1.46085 0 2.76537V27.6515C0 28.8478 0.980208 29.8451 2.24112 29.91C5.93575 30.1015 13.4086 30.802 18.5732 33.3683C19.366 33.7624 20.3059 33.2254 20.3059 32.3768V5.55563C20.3059 5.16596 20.1103 4.80871 19.7632 4.59878Z" />
</svg>
